<svg width="1200" height="760" viewBox="0 0 1200 760" fill="none" xmlns="http://www.w3.org/2000/svg">
  <rect width="1200" height="760" rx="56" fill="#F8FBFF"/>
  <circle cx="1020" cy="610" r="240" fill="#CCFBF1"/>
  <circle cx="230" cy="120" r="220" fill="#DBEAFE"/>
  <rect x="90" y="82" width="1020" height="596" rx="38" fill="white" stroke="#D7E3F4" stroke-width="3"/>
  <rect x="90" y="82" width="190" height="596" rx="38" fill="#111827"/>
  <rect x="132" y="132" width="74" height="74" rx="24" fill="#2563EB"/>
  <rect x="132" y="252" width="100" height="18" rx="9" fill="#DBEAFE"/>
  <rect x="132" y="298" width="112" height="18" rx="9" fill="#64748B"/>
  <rect x="132" y="344" width="82" height="18" rx="9" fill="#64748B"/>
  <rect x="132" y="390" width="118" height="18" rx="9" fill="#64748B"/>
  <rect x="334" y="130" width="330" height="54" rx="18" fill="#111827"/>
  <rect x="334" y="224" width="214" height="28" rx="14" fill="#94A3B8"/>
  <rect x="334" y="292" width="210" height="270" rx="30" fill="#EFF6FF" stroke="#D7E3F4" stroke-width="2"/>
  <rect x="574" y="292" width="210" height="270" rx="30" fill="#F0FDFA" stroke="#D7E3F4" stroke-width="2"/>
  <rect x="814" y="292" width="210" height="270" rx="30" fill="#EFF6FF" stroke="#D7E3F4" stroke-width="2"/>
  <rect x="366" y="332" width="92" height="18" rx="9" fill="#2563EB"/>
  <rect x="606" y="332" width="92" height="18" rx="9" fill="#14B8A6"/>
  <rect x="846" y="332" width="92" height="18" rx="9" fill="#2563EB"/>
  <rect x="366" y="386" width="146" height="58" rx="18" fill="white"/>
  <rect x="606" y="386" width="146" height="58" rx="18" fill="white"/>
  <rect x="846" y="386" width="146" height="58" rx="18" fill="white"/>
  <rect x="366" y="466" width="146" height="58" rx="18" fill="white"/>
  <rect x="606" y="466" width="146" height="58" rx="18" fill="white"/>
  <path d="M848 604C868 560 902 530 946 520C990 510 1018 540 1032 580" stroke="#14B8A6" stroke-width="18" stroke-linecap="round"/>
  <path d="M338 620H518" stroke="#2563EB" stroke-width="18" stroke-linecap="round"/>
  <path d="M338 650H444" stroke="#CBD5E1" stroke-width="16" stroke-linecap="round"/>
  <text x="334" y="632" fill="#2563EB" font-family="Inter, Arial, sans-serif" font-size="32" font-weight="800">CRM PERSONALIZADO</text>
</svg>
