<svg width="1200" height="760" viewBox="0 0 1200 760" fill="none" xmlns="http://www.w3.org/2000/svg">
  <rect width="1200" height="760" rx="56" fill="#F8FBFF"/>
  <circle cx="1010" cy="130" r="210" fill="#DBEAFE"/>
  <circle cx="180" cy="640" r="230" fill="#CCFBF1"/>
  <rect x="96" y="82" width="1008" height="596" rx="36" fill="white" stroke="#D7E3F4" stroke-width="3"/>
  <rect x="96" y="82" width="1008" height="76" rx="36" fill="#EFF6FF"/>
  <circle cx="146" cy="120" r="10" fill="#2563EB"/>
  <circle cx="180" cy="120" r="10" fill="#14B8A6"/>
  <circle cx="214" cy="120" r="10" fill="#93C5FD"/>
  <rect x="760" y="108" width="230" height="24" rx="12" fill="#CBD5E1"/>
  <rect x="142" y="210" width="360" height="58" rx="16" fill="#111827"/>
  <rect x="142" y="292" width="275" height="24" rx="12" fill="#94A3B8"/>
  <rect x="142" y="336" width="315" height="24" rx="12" fill="#CBD5E1"/>
  <rect x="142" y="404" width="190" height="56" rx="28" fill="#2563EB"/>
  <rect x="358" y="404" width="150" height="56" rx="28" fill="#E2E8F0"/>
  <rect x="602" y="220" width="142" height="196" rx="26" fill="#EFF6FF" stroke="#D7E3F4" stroke-width="2"/>
  <rect x="773" y="220" width="142" height="196" rx="26" fill="#F0FDFA" stroke="#D7E3F4" stroke-width="2"/>
  <rect x="944" y="220" width="142" height="196" rx="26" fill="#EFF6FF" stroke="#D7E3F4" stroke-width="2"/>
  <rect x="626" y="250" width="94" height="86" rx="18" fill="#BFDBFE"/>
  <rect x="797" y="250" width="94" height="86" rx="18" fill="#99F6E4"/>
  <rect x="968" y="250" width="94" height="86" rx="18" fill="#BFDBFE"/>
  <rect x="626" y="360" width="70" height="16" rx="8" fill="#64748B"/>
  <rect x="797" y="360" width="70" height="16" rx="8" fill="#64748B"/>
  <rect x="968" y="360" width="70" height="16" rx="8" fill="#64748B"/>
  <rect x="626" y="388" width="50" height="14" rx="7" fill="#2563EB"/>
  <rect x="797" y="388" width="50" height="14" rx="7" fill="#14B8A6"/>
  <rect x="968" y="388" width="50" height="14" rx="7" fill="#2563EB"/>
  <rect x="602" y="478" width="484" height="112" rx="28" fill="#111827"/>
  <rect x="638" y="514" width="174" height="20" rx="10" fill="#E2E8F0"/>
  <rect x="638" y="552" width="112" height="16" rx="8" fill="#94A3B8"/>
  <rect x="880" y="520" width="160" height="46" rx="23" fill="#14B8A6"/>
  <text x="142" y="555" fill="#2563EB" font-family="Inter, Arial, sans-serif" font-size="32" font-weight="800">E-COMMERCE EM CONSTRUCAO</text>
</svg>
